<svg xmlns="http://www.w3.org/2000/svg" width="395" height="154" viewBox="0 0 395 154">
  <rect width="395" height="154" rx="6" fill="#0d1117" stroke="#30363d" stroke-width="1"/>
  <text x="25" y="35" fill="#818cf8" font-size="16" font-weight="700" font-family="'Segoe UI', Ubuntu, sans-serif">GitLab — Top Languages</text>
  <line x1="25" y1="46" x2="370" y2="46" stroke="#30363d" stroke-width="0.5"/>
  <rect x="25" y="55" width="223.215" height="12" rx="2" fill="#818cf8"/>
  <rect x="248.215" y="55" width="52.44" height="12" rx="2" fill="#c4b5fd"/>
  <rect x="300.655" y="55" width="31.395" height="12" rx="2" fill="#6366f1"/>
  <rect x="332.04999999999995" y="55" width="17.595" height="12" rx="2" fill="#a78bfa"/>
  <rect x="349.645" y="55" width="12.420000000000002" height="12" rx="2" fill="#7c3aed"/>
  <rect x="362.065" y="55" width="6.210000000000001" height="12" rx="2" fill="#4f46e5"/>
  <rect x="368.275" y="55" width="1.3800000000000001" height="12" rx="2" fill="#818cf8"/>
  <rect x="369.655" y="55" width="1" height="12" rx="2" fill="#c4b5fd"/>

  <circle cx="25" cy="90" r="5" fill="#818cf8"/>
  <text x="35" y="94" fill="#c9d1d9" font-size="11" font-family="'Segoe UI', Ubuntu, sans-serif">Python 64.7%</text>
  <circle cx="125" cy="90" r="5" fill="#c4b5fd"/>
  <text x="135" y="94" fill="#c9d1d9" font-size="11" font-family="'Segoe UI', Ubuntu, sans-serif">Shell 15.2%</text>
  <circle cx="225" cy="90" r="5" fill="#6366f1"/>
  <text x="235" y="94" fill="#c9d1d9" font-size="11" font-family="'Segoe UI', Ubuntu, sans-serif">JavaScript 9.1%</text>
  <circle cx="325" cy="90" r="5" fill="#a78bfa"/>
  <text x="335" y="94" fill="#c9d1d9" font-size="11" font-family="'Segoe UI', Ubuntu, sans-serif">HTML 5.1%</text>
  <circle cx="25" cy="112" r="5" fill="#7c3aed"/>
  <text x="35" y="116" fill="#c9d1d9" font-size="11" font-family="'Segoe UI', Ubuntu, sans-serif">Mustache 3.6%</text>
  <circle cx="125" cy="112" r="5" fill="#4f46e5"/>
  <text x="135" y="116" fill="#c9d1d9" font-size="11" font-family="'Segoe UI', Ubuntu, sans-serif">Dockerfile 1.8%</text>
  <circle cx="225" cy="112" r="5" fill="#818cf8"/>
  <text x="235" y="116" fill="#c9d1d9" font-size="11" font-family="'Segoe UI', Ubuntu, sans-serif">CSS 0.4%</text>
  <circle cx="325" cy="112" r="5" fill="#c4b5fd"/>
  <text x="335" y="116" fill="#c9d1d9" font-size="11" font-family="'Segoe UI', Ubuntu, sans-serif">Lua 0.1%</text>

</svg>